HIERARCHY
ROOT Root
{
	OFFSET 0.00 0.00 0.00
	CHANNELS 6 Xposition Yposition Zposition Xrotation Yrotation Zrotation
	JOINT L_Femur
	{
		OFFSET 3.76246 0.00000 0.00000
		CHANNELS 3 Xrotation Yrotation Zrotation
		JOINT L_Tibia
		{
			OFFSET 0.00000 -18.62495 0.00000
			CHANNELS 3 Xrotation Yrotation Zrotation
			JOINT L_Foot
			{
				OFFSET 0.00000 -17.24559 0.00000
				CHANNELS 3 Xrotation Yrotation Zrotation
				JOINT L_Toe
				{
					OFFSET 0.00000 -1.22276 4.56342
					CHANNELS 3 Xrotation Yrotation Zrotation
					End Site
					{
						OFFSET 0.00000 0.00000 2.95275
					}
				}
			}
		}
	}
	JOINT R_Femur
	{
		OFFSET -3.76246 0.00000 0.00000
		CHANNELS 3 Xrotation Yrotation Zrotation
		JOINT R_Tibia
		{
			OFFSET 0.00000 -18.62495 0.00000
			CHANNELS 3 Xrotation Yrotation Zrotation
			JOINT R_Foot
			{
				OFFSET 0.00000 -17.24559 0.00000
				CHANNELS 3 Xrotation Yrotation Zrotation
				JOINT R_Toe
				{
					OFFSET 0.00000 -1.22276 4.56342
					CHANNELS 3 Xrotation Yrotation Zrotation
					End Site
					{
						OFFSET 0.00000 0.00000 2.95275
					}
				}
			}
		}
	}
	JOINT LowerBack
	{
		OFFSET 0.00000 0.03937 0.00000
		CHANNELS 3 Xrotation Yrotation Zrotation
		JOINT Thorax
		{
			OFFSET 0.00000 7.43271 0.00000
			CHANNELS 3 Xrotation Yrotation Zrotation
			JOINT Neck
			{
				OFFSET 0.00000 7.43271 0.00000
				CHANNELS 3 Xrotation Yrotation Zrotation
				JOINT head
				{
					OFFSET 0.00000 6.36685 0.00000
					CHANNELS 3 Xrotation Yrotation Zrotation
					End Site
					{
						OFFSET 0.00000 4.52755 0.00000
					}
				}
			}
			JOINT L_Collar
			{
				OFFSET 0.00000 7.43271 0.00000
				CHANNELS 3 Xrotation Yrotation Zrotation
				JOINT L_Humerus
				{
					OFFSET 6.65860 -0.00002 0.00000
					CHANNELS 3 Xrotation Yrotation Zrotation
					JOINT L_Elbow
					{
						OFFSET 11.77659 -0.00004 0.00000
						CHANNELS 3 Xrotation Yrotation Zrotation
						JOINT L_Wrist
						{
							OFFSET 9.87228 -0.00004 0.00000
							CHANNELS 3 Xrotation Yrotation Zrotation
							End Site
							{
								OFFSET 3.93700 -0.00001 0.00000
							}
						}
					}
				}
			}
			JOINT R_Collar
			{
				OFFSET 0.00000 7.43271 0.00000
				CHANNELS 3 Xrotation Yrotation Zrotation
				JOINT R_Humerus
				{
					OFFSET -6.65860 -0.00002 0.00000
					CHANNELS 3 Xrotation Yrotation Zrotation
					JOINT R_Elbow
					{
						OFFSET -11.77659 -0.00004 0.00000
						CHANNELS 3 Xrotation Yrotation Zrotation
						JOINT R_Wrist
						{
							OFFSET -9.87228 -0.00004 0.00000
							CHANNELS 3 Xrotation Yrotation Zrotation
							End Site
							{
								OFFSET -5.41338 -0.00002 0.00000
							}
						}
					}
				}
			}
		}
	}
}
MOTION
Frames: 11
Frame Time: 0.008333
 -17.2085 37.4457 -23.7779 21.9277 6.3612 -0.8730 -22.2753 4.1102 6.0713 6.7678 0.0000 0.0000 -8.2503 -6.3577 -1.5020 -0.2022 0.0000 -0.0000 -18.9618 -9.7475 -9.3960 10.7468 -0.0000 -0.0000 -15.8136 -2.7936 8.8887 -1.8307 0.0000 0.0000 -16.8044 -3.4485 -7.3020 -4.0981 1.2292 4.9660 5.1620 -0.7986 -4.0145 -19.0071 -3.7487 9.5160 12.8381 8.9893 12.4842 -20.7446 -44.2723 -92.4858 -0.0001 -17.1331 -0.0000 2.0914 -0.3465 -11.8719 9.0030 -4.7488 -14.3311 -17.0411 45.1884 88.7114 -0.0001 21.7847 0.0000 7.5861 -3.7484 6.1160
 -17.1882 37.4460 -23.7706 21.9402 6.2540 -0.8170 -22.2217 4.1489 6.0192 6.7127 -0.0000 -0.0000 -8.2499 -6.2626 -1.4572 -0.1896 0.0000 0.0000 -18.9954 -9.7623 -9.4520 10.7243 0.0000 0.0000 -15.7703 -2.7131 8.8574 -1.9303 0.0000 0.0000 -16.8267 -3.4347 -7.3245 -4.1459 1.2300 4.9833 5.1326 -0.8011 -4.0115 -18.8407 -3.7286 9.5991 12.8541 8.9664 12.4892 -20.7243 -44.3499 -92.4970 -0.0001 -17.1553 -0.0000 2.1205 -0.3434 -11.9373 9.0502 -4.7202 -14.3079 -17.1678 45.4051 88.7664 -0.0001 21.7919 0.0000 7.6036 -3.7520 6.1541
 -17.1695 37.4468 -23.7634 21.9336 6.1539 -0.7635 -22.1551 4.1812 5.9718 6.6656 -0.0000 -0.0000 -8.2670 -6.1745 -1.4200 -0.1311 -0.0000 0.0000 -19.0137 -9.8123 -9.5055 10.7046 -0.0000 0.0000 -15.7326 -2.6026 8.8599 -1.9958 -0.0000 0.0000 -16.8376 -3.4313 -7.3504 -4.1806 1.2411 5.0016 5.1086 -0.7930 -4.0143 -18.7025 -3.7197 9.6963 12.8687 8.9316 12.5108 -20.7176 -44.4573 -92.5184 -0.0001 -17.1850 -0.0000 2.1112 -0.3343 -11.9879 9.0794 -4.6983 -14.2829 -17.3112 45.5343 88.8596 -0.0001 21.7521 0.0000 7.6164 -3.7415 6.2056
 -17.1502 37.4478 -23.7557 21.9117 6.0618 -0.7078 -22.0747 4.1964 5.9212 6.6245 -0.0000 -0.0000 -8.2730 -6.0797 -1.3755 -0.1200 -0.0000 -0.0000 -19.0113 -9.8513 -9.5620 10.6769 -0.0000 0.0000 -15.7016 -2.5157 8.9193 -2.0060 0.0000 -0.0000 -16.8396 -3.4370 -7.3688 -4.2045 1.2388 5.0037 5.0764 -0.7847 -4.0308 -18.5573 -3.6934 9.8312 12.8686 8.9282 12.5357 -20.7251 -44.5915 -92.5501 -0.0001 -17.2011 -0.0000 2.1125 -0.3641 -12.0396 9.0980 -4.6546 -14.2573 -17.4557 45.6446 88.9703 -0.0001 21.6894 0.0000 7.7104 -3.6891 6.2373
 -17.1317 37.4486 -23.7498 21.9004 5.9569 -0.6507 -22.0052 4.2102 5.8726 6.5881 0.0000 -0.0000 -8.2808 -5.9765 -1.3239 -0.0999 0.0000 -0.0000 -19.0213 -9.8671 -9.6154 10.6540 -0.0000 0.0000 -15.6715 -2.4378 8.9457 -2.0192 -0.0000 -0.0000 -16.8395 -3.4213 -7.3958 -4.2426 1.2064 5.0277 5.0554 -0.7707 -4.0421 -18.4394 -3.6654 9.9268 12.8976 8.9053 12.5477 -20.7159 -44.6889 -92.5587 -0.0001 -17.2438 -0.0000 2.1694 -0.3559 -12.1017 9.1442 -4.6149 -14.2426 -17.6139 45.7925 89.0665 -0.0001 21.6561 0.0000 7.7445 -3.6758 6.3089
 -17.1125 37.4487 -23.7428 21.8776 5.8647 -0.6016 -21.9324 4.2200 5.8292 6.5568 -0.0000 -0.0000 -8.2931 -5.8852 -1.2837 -0.0708 -0.0000 0.0000 -19.0193 -9.8942 -9.6657 10.6354 -0.0000 -0.0000 -15.6386 -2.3400 8.9614 -2.0599 0.0000 0.0000 -16.8252 -3.4280 -7.4216 -4.2851 1.1774 5.0631 5.0360 -0.7587 -4.0333 -18.3292 -3.5983 9.9805 12.9120 8.9002 12.5503 -20.7256 -44.7995 -92.5815 -0.0001 -17.2541 -0.0000 2.1703 -0.4059 -12.1869 9.1584 -4.5676 -14.2464 -17.7292 45.9521 89.1680 -0.0001 21.6535 0.0000 7.8303 -3.6668 6.3426
 -17.0965 37.4471 -23.7339 21.8411 5.7646 -0.5536 -21.8404 4.2179 5.7965 6.5284 -0.0000 -0.0000 -8.3146 -5.7831 -1.2592 -0.0732 -0.0000 -0.0000 -18.9967 -9.9200 -9.7048 10.6097 -0.0000 -0.0000 -15.6263 -2.2648 9.0012 -2.0572 0.0000 -0.0000 -16.8208 -3.4784 -7.4699 -4.3119 1.2085 5.1379 5.0100 -0.7514 -4.0328 -18.2108 -3.5531 10.0181 12.9251 8.8865 12.5551 -20.7143 -44.9620 -92.5906 -0.0001 -17.3218 -0.0000 2.1951 -0.4048 -12.2404 9.2007 -4.5512 -14.2609 -17.8827 46.1109 89.2837 -0.0001 21.6514 0.0000 7.8676 -3.6873 6.3587
 -17.0794 37.4470 -23.7284 21.8093 5.6669 -0.4969 -21.7599 4.2152 5.7497 6.5068 0.0000 0.0000 -8.3386 -5.6727 -1.2563 -0.0183 0.0000 0.0000 -18.9940 -9.9466 -9.7613 10.6020 0.0000 0.0000 -15.5937 -2.1494 8.9558 -2.1753 -0.0000 0.0000 -16.7959 -3.4729 -7.4935 -4.3585 1.1881 5.1576 4.9877 -0.7527 -4.0354 -18.1012 -3.4949 10.0971 12.9482 8.8581 12.5862 -20.7298 -45.0789 -92.6134 -0.0001 -17.3647 -0.0000 2.2222 -0.3975 -12.3100 9.2295 -4.5263 -14.2603 -18.0024 46.2404 89.3916 -0.0001 21.6580 0.0000 7.8905 -3.7213 6.3654
 -17.0623 37.4475 -23.7227 21.7815 5.5708 -0.4391 -21.6898 4.2211 5.7038 6.4944 -0.0000 0.0000 -8.3708 -5.5810 -1.2446 0.0047 -0.0000 -0.0000 -18.9910 -9.9403 -9.8155 10.5960 0.0000 0.0000 -15.5905 -2.0805 9.0130 -2.1180 -0.0000 0.0000 -16.7875 -3.4600 -7.5037 -4.3789 1.1859 5.1437 4.9668 -0.7650 -4.0156 -18.0228 -3.4471 10.1598 12.9258 8.8204 12.6398 -20.7316 -45.2112 -92.6428 -0.0001 -17.3946 -0.0000 2.2519 -0.4526 -12.3723 9.2477 -4.5144 -14.2357 -18.0996 46.3852 89.4782 -0.0001 21.6902 0.0000 7.8878 -3.7356 6.4029
 -17.0451 37.4478 -23.7182 21.7678 5.4694 -0.3795 -21.6353 4.2255 5.6562 6.4850 -0.0000 0.0000 -8.3843 -5.4883 -1.1909 0.0025 -0.0000 -0.0000 -19.0070 -9.9154 -9.8722 10.5995 -0.0000 -0.0000 -15.5862 -2.0171 9.0277 -2.0877 0.0000 0.0000 -16.7823 -3.4490 -7.5247 -4.4105 1.1667 5.1577 4.9447 -0.7702 -4.0217 -17.9488 -3.3890 10.2303 12.9253 8.7962 12.6663 -20.7682 -45.3356 -92.6770 -0.0001 -17.4062 -0.0000 2.2205 -0.4584 -12.4471 9.2965 -4.5062 -14.2313 -18.2284 46.5084 89.5775 -0.0001 21.7147 0.0000 7.9542 -3.6891 6.3860
 -17.0281 37.4465 -23.7139 21.7605 5.3624 -0.3225 -21.5881 4.2331 5.6114 6.4782 0.0000 0.0000 -8.4059 -5.3881 -1.1576 -0.0008 0.0000 -0.0000 -19.0269 -9.8720 -9.9239 10.6010 0.0000 0.0000 -15.5767 -1.9669 9.0705 -2.0957 0.0000 0.0000 -16.7886 -3.4346 -7.5396 -4.4284 1.1554 5.1699 4.9162 -0.7746 -4.0112 -17.8983 -3.3316 10.2569 12.9224 8.7599 12.6934 -20.7873 -45.4208 -92.6949 -0.0001 -17.4363 -0.0000 2.3569 -0.5041 -12.5505 9.3032 -4.5009 -14.2333 -18.3368 46.6262 89.6892 -0.0001 21.7329 0.0000 8.0246 -3.6498 6.4607
